<?xml version="1.0" encoding="utf-8"?>
<!-- Generator: Adobe Illustrator 25.4.1, SVG Export Plug-In . SVG Version: 6.00 Build 0)  -->
<svg version="1.1" id="Capa_1" xmlns="http://www.w3.org/2000/svg" xmlns:xlink="http://www.w3.org/1999/xlink" x="0px" y="0px"
	 viewBox="0 0 1200 600" style="enable-background:new 0 0 1200 600;" xml:space="preserve">
<style type="text/css">
	.st0{fill:#FEDEBF;}
	.st1{fill:#D4EABF;}
	.st2{fill:#BFDBF7;}
	.st3{fill:#FEE0C2;}
	.st4{fill:#FEA64F;}
	.st5{fill:#0072E3;}
	.st6{fill:#57AE00;}
	.st7{fill:#1A8BFE;}
</style>
<g>
	<path class="st0" d="M592.22,305.92c-25.18-14.91-23.39-43.8-28.2-68.69c-1.12-5.81-4.48-10.97-9.36-14.32
		c-46.18-31.73-87.86,80.4-141.81,46.85c36.11-18.25,151.27-144.01,182.37-90.67c11.11,29.72-8.41,73.02,18.74,96.05
		c49.77,36.64,117.4-40.83,182.49-10.08C724.19,255.24,662.95,346.95,592.22,305.92z"/>
	<path class="st1" d="M913.96,294.91c33.9,17.2,71.54-26.66,114.8-9.91c-26.96,0.53-55.99,14.5-80.52,27.79
		c-21.1,14.01-54.69,8.44-65.76-15.74c-4.46-10.12-3.23-21.21-5.79-31.68c-27.34-41.02-62.9,45.98-99.64,23.52
		c20.7-11.59,109.56-100.92,121.37-56.48C905.19,252.11,891.71,282.27,913.96,294.91z"/>
	<path class="st2" d="M432.61,297.55c3.98-0.01,7.67,0.86,10.45,4C439.15,301.4,436.23,298.6,432.61,297.55z"/>
	<path class="st3" d="M784.66,255.35c0.03-0.24,0.01-0.47-0.06-0.69"/>
	<path class="st4" d="M580.36,295.96c-25.18-14.91-23.39-43.8-28.2-68.69c-1.12-5.81-4.48-10.97-9.36-14.32
		c-46.18-31.73-87.86,80.4-141.81,46.85c36.11-18.25,151.27-144.01,182.37-90.67c11.11,29.72-8.41,73.02,18.74,96.05
		c49.77,36.64,117.4-40.83,182.49-10.08C712.33,245.28,651.09,336.99,580.36,295.96z"/>
	<path class="st2" d="M412.3,293.68c-44.5-4.24-84,50.51-123.05,27.11c-24.13-14.46-11.24-38.9-26.66-53.95
		c-29.98-15.61-54.49,48.76-88.86,30.03c21.93-10.03,102.32-97.23,115.75-52.78c6.24,18.71-5.91,46.22,14.8,58.59
		C331.77,320.33,376.65,275.95,412.3,293.68z"/>
	<path class="st5" d="M401.03,281.13c-44.5-4.24-82.94,49.45-123.05,27.11c-24.58-13.69-11.24-38.9-26.66-53.95
		c-29.98-15.61-54.49,48.76-88.86,30.03c21.93-10.03,102.32-97.23,115.75-52.78c6.24,18.71-5.91,46.22,14.8,58.59
		C320.51,307.78,365.38,263.4,401.03,281.13z"/>
	<path class="st6" d="M901.02,282.59c33.9,17.2,71.54-26.66,114.8-9.91c-26.96,0.53-55.99,14.5-80.52,27.79
		c-21.1,14.01-54.69,8.44-65.76-15.74c-3.53-8.02-3.49-16.65-4.6-25.1c-0.74-5.65-3.61-10.9-8.19-14.3
		c-26.27-19.55-58.96,51.83-92.64,31.24c20.7-11.59,109.56-100.92,121.37-56.48C892.25,239.8,878.77,269.96,901.02,282.59z"/>
	<g>
		<path class="st7" d="M162.82,373.18v-10.13h8.88v10.13H162.82z M162.82,434.81v-51.99h8.88v51.99H162.82z"/>
		<path class="st7" d="M185.22,434.81v-51.99h7.99v7.39c3.85-5.71,9.41-8.57,16.68-8.57c3.16,0,6.06,0.56,8.71,1.69
			c2.65,1.13,4.63,2.6,5.94,4.43c1.31,1.83,2.24,4,2.76,6.51c0.33,1.63,0.49,4.49,0.49,8.57v31.97h-8.88v-31.62
			c0-3.59-0.35-6.27-1.04-8.05c-0.69-1.78-1.92-3.2-3.68-4.26c-1.76-1.06-3.82-1.59-6.19-1.59c-3.78,0-7.05,1.19-9.79,3.57
			c-2.75,2.38-4.12,6.9-4.12,13.56v28.39H185.22z"/>
		<path class="st7" d="M237.86,419.29l8.78-1.37c0.49,3.49,1.87,6.17,4.12,8.03c2.25,1.86,5.4,2.79,9.45,2.79
			c4.08,0,7.1-0.82,9.08-2.47c1.97-1.65,2.96-3.58,2.96-5.8c0-1.99-0.87-3.56-2.61-4.7c-1.22-0.78-4.24-1.78-9.08-2.99
			c-6.51-1.63-11.03-3.04-13.54-4.24c-2.52-1.19-4.42-2.84-5.72-4.94c-1.3-2.1-1.95-4.43-1.95-6.98c0-2.32,0.53-4.46,1.6-6.44
			c1.07-1.97,2.52-3.61,4.37-4.92c1.38-1.01,3.26-1.87,5.65-2.57c2.38-0.7,4.94-1.05,7.67-1.05c4.11,0,7.72,0.59,10.83,1.76
			c3.11,1.17,5.4,2.77,6.88,4.77c1.48,2.01,2.5,4.69,3.06,8.05l-8.68,1.17c-0.39-2.68-1.54-4.76-3.43-6.27
			c-1.89-1.5-4.56-2.25-8.02-2.25c-4.08,0-6.99,0.67-8.73,2.01c-1.74,1.34-2.61,2.91-2.61,4.7c0,1.14,0.36,2.17,1.09,3.08
			c0.72,0.95,1.86,1.73,3.4,2.35c0.89,0.33,3.5,1.08,7.84,2.25c6.28,1.67,10.66,3.03,13.15,4.09c2.48,1.06,4.43,2.6,5.85,4.63
			c1.41,2.02,2.12,4.54,2.12,7.54c0,2.94-0.86,5.7-2.59,8.3c-1.73,2.59-4.22,4.6-7.47,6.02c-3.26,1.42-6.94,2.13-11.05,2.13
			c-6.81,0-12-1.4-15.56-4.21C241.12,428.97,238.85,424.81,237.86,419.29z"/>
		<path class="st7" d="M311.32,426.93l1.28,7.78c-2.5,0.52-4.74,0.78-6.71,0.78c-3.22,0-5.72-0.51-7.5-1.52
			c-1.78-1.01-3.03-2.34-3.75-3.99c-0.72-1.65-1.09-5.12-1.09-10.4v-29.91h-6.51v-6.85h6.51v-12.88l8.83-5.29v18.16h8.93v6.85h-8.93
			v30.4c0,2.51,0.16,4.13,0.47,4.85c0.31,0.72,0.82,1.29,1.53,1.71c0.71,0.42,1.72,0.64,3.03,0.64
			C308.41,427.27,309.71,427.16,311.32,426.93z"/>
		<path class="st7" d="M320.05,373.18v-10.13h8.88v10.13H320.05z M320.05,434.81v-51.99h8.88v51.99H320.05z"/>
		<path class="st7" d="M361.84,426.93l1.28,7.78c-2.5,0.52-4.74,0.78-6.71,0.78c-3.22,0-5.72-0.51-7.5-1.52
			c-1.78-1.01-3.03-2.34-3.75-3.99c-0.72-1.65-1.09-5.12-1.09-10.4v-29.91h-6.51v-6.85h6.51v-12.88l8.83-5.29v18.16h8.93v6.85h-8.93
			v30.4c0,2.51,0.16,4.13,0.47,4.85c0.31,0.72,0.82,1.29,1.53,1.71c0.71,0.42,1.72,0.64,3.03,0.64
			C358.93,427.27,360.23,427.16,361.84,426.93z"/>
		<path class="st7" d="M404.86,434.81v-7.64c-4.08,5.87-9.62,8.81-16.63,8.81c-3.09,0-5.98-0.59-8.66-1.76
			c-2.68-1.17-4.67-2.65-5.97-4.43c-1.3-1.78-2.21-3.96-2.74-6.54c-0.36-1.73-0.54-4.47-0.54-8.22v-32.21h8.88v28.83
			c0,4.6,0.18,7.7,0.54,9.3c0.56,2.32,1.74,4.14,3.55,5.46c1.81,1.32,4.05,1.98,6.71,1.98s5.16-0.68,7.5-2.03
			c2.33-1.35,3.99-3.2,4.96-5.53c0.97-2.33,1.46-5.72,1.46-10.16v-27.86h8.88v51.99H404.86z"/>
		<path class="st7" d="M446.1,426.93l1.28,7.78c-2.5,0.52-4.74,0.78-6.71,0.78c-3.22,0-5.72-0.51-7.5-1.52
			c-1.78-1.01-3.03-2.34-3.75-3.99c-0.72-1.65-1.09-5.12-1.09-10.4v-29.91h-6.51v-6.85h6.51v-12.88l8.83-5.29v18.16h8.93v6.85h-8.93
			v30.4c0,2.51,0.16,4.13,0.47,4.85c0.31,0.72,0.82,1.29,1.53,1.71c0.71,0.42,1.72,0.64,3.03,0.64
			C443.19,427.27,444.49,427.16,446.1,426.93z"/>
		<path class="st7" d="M479.3,419.29l8.78-1.37c0.49,3.49,1.87,6.17,4.12,8.03c2.25,1.86,5.4,2.79,9.45,2.79
			c4.08,0,7.1-0.82,9.08-2.47c1.97-1.65,2.96-3.58,2.96-5.8c0-1.99-0.87-3.56-2.61-4.7c-1.22-0.78-4.24-1.78-9.08-2.99
			c-6.51-1.63-11.03-3.04-13.54-4.24c-2.52-1.19-4.42-2.84-5.72-4.94c-1.3-2.1-1.95-4.43-1.95-6.98c0-2.32,0.53-4.46,1.6-6.44
			c1.07-1.97,2.52-3.61,4.37-4.92c1.38-1.01,3.26-1.87,5.65-2.57c2.38-0.7,4.94-1.05,7.67-1.05c4.11,0,7.72,0.59,10.83,1.76
			c3.11,1.17,5.4,2.77,6.88,4.77c1.48,2.01,2.5,4.69,3.06,8.05l-8.68,1.17c-0.39-2.68-1.54-4.76-3.43-6.27
			c-1.89-1.5-4.56-2.25-8.02-2.25c-4.08,0-6.99,0.67-8.73,2.01c-1.74,1.34-2.61,2.91-2.61,4.7c0,1.14,0.36,2.17,1.09,3.08
			c0.72,0.95,1.86,1.73,3.4,2.35c0.89,0.33,3.5,1.08,7.84,2.25c6.28,1.67,10.66,3.03,13.15,4.09c2.48,1.06,4.43,2.6,5.85,4.63
			c1.41,2.02,2.12,4.54,2.12,7.54c0,2.94-0.86,5.7-2.59,8.3c-1.73,2.59-4.22,4.6-7.47,6.02c-3.26,1.42-6.94,2.13-11.05,2.13
			c-6.81,0-12-1.4-15.56-4.21C482.57,428.97,480.29,424.81,479.3,419.29z"/>
		<path class="st7" d="M567.56,428.4c-3.29,2.77-6.46,4.73-9.5,5.88c-3.04,1.14-6.31,1.71-9.79,1.71c-5.76,0-10.18-1.4-13.27-4.19
			c-3.09-2.79-4.64-6.36-4.64-10.7c0-2.55,0.58-4.87,1.75-6.98c1.17-2.1,2.7-3.79,4.59-5.07c1.89-1.27,4.02-2.24,6.39-2.89
			c1.74-0.46,4.37-0.9,7.89-1.32c7.17-0.85,12.45-1.86,15.84-3.04c0.03-1.21,0.05-1.97,0.05-2.3c0-3.59-0.84-6.12-2.52-7.59
			c-2.27-1.99-5.64-2.99-10.11-2.99c-4.18,0-7.26,0.73-9.25,2.18c-1.99,1.45-3.46,4.02-4.42,7.71l-8.68-1.18
			c0.79-3.69,2.09-6.67,3.9-8.93c1.81-2.27,4.42-4.01,7.84-5.24c3.42-1.22,7.38-1.84,11.89-1.84c4.47,0,8.11,0.52,10.9,1.57
			c2.79,1.04,4.85,2.36,6.17,3.94s2.24,3.58,2.76,6c0.3,1.5,0.44,4.21,0.44,8.13v11.75c0,8.19,0.19,13.37,0.57,15.54
			c0.38,2.17,1.13,4.25,2.24,6.24h-9.27C568.42,432.99,567.83,430.85,567.56,428.4z M566.82,408.72c-3.22,1.31-8.06,2.42-14.5,3.33
			c-3.65,0.52-6.23,1.11-7.75,1.76c-1.51,0.65-2.68,1.61-3.5,2.86c-0.82,1.26-1.23,2.65-1.23,4.19c0,2.35,0.9,4.31,2.69,5.88
			c1.79,1.57,4.42,2.35,7.87,2.35c3.42,0,6.46-0.74,9.13-2.23c2.66-1.48,4.62-3.52,5.87-6.09c0.95-1.99,1.43-4.93,1.43-8.81V408.72z
			"/>
		<path class="st7" d="M617.64,454.74v-71.92h8.09v6.76c1.91-2.64,4.06-4.63,6.46-5.95c2.4-1.32,5.31-1.98,8.73-1.98
			c4.47,0,8.42,1.14,11.84,3.43c3.42,2.29,6,5.51,7.75,9.67c1.74,4.16,2.61,8.72,2.61,13.68c0,5.32-0.96,10.11-2.89,14.37
			s-4.72,7.52-8.39,9.79c-3.67,2.27-7.52,3.4-11.57,3.4c-2.96,0-5.62-0.62-7.97-1.86s-4.28-2.81-5.8-4.7v25.31H617.64z
			 M625.68,409.11c0,6.69,1.36,11.63,4.09,14.83c2.73,3.2,6.03,4.8,9.92,4.8c3.95,0,7.33-1.66,10.14-4.97
			c2.81-3.31,4.22-8.45,4.22-15.4c0-6.62-1.37-11.59-4.12-14.88c-2.75-3.3-6.03-4.94-9.84-4.94c-3.78,0-7.13,1.75-10.04,5.26
			C627.13,397.32,625.68,402.42,625.68,409.11z"/>
		<path class="st7" d="M708.02,428.4c-3.29,2.77-6.46,4.73-9.5,5.88c-3.04,1.14-6.31,1.71-9.79,1.71c-5.76,0-10.18-1.4-13.27-4.19
			c-3.09-2.79-4.64-6.36-4.64-10.7c0-2.55,0.58-4.87,1.75-6.98c1.17-2.1,2.7-3.79,4.59-5.07c1.89-1.27,4.02-2.24,6.39-2.89
			c1.74-0.46,4.37-0.9,7.89-1.32c7.17-0.85,12.45-1.86,15.84-3.04c0.03-1.21,0.05-1.97,0.05-2.3c0-3.59-0.84-6.12-2.52-7.59
			c-2.27-1.99-5.64-2.99-10.11-2.99c-4.18,0-7.26,0.73-9.25,2.18c-1.99,1.45-3.46,4.02-4.42,7.71l-8.68-1.18
			c0.79-3.69,2.09-6.67,3.9-8.93s4.42-4.01,7.84-5.24c3.42-1.22,7.38-1.84,11.89-1.84c4.47,0,8.11,0.52,10.9,1.57
			c2.8,1.04,4.85,2.36,6.17,3.94s2.24,3.58,2.76,6c0.3,1.5,0.44,4.21,0.44,8.13v11.75c0,8.19,0.19,13.37,0.57,15.54
			c0.38,2.17,1.13,4.25,2.24,6.24h-9.27C708.87,432.99,708.28,430.85,708.02,428.4z M707.28,408.72c-3.22,1.31-8.06,2.42-14.5,3.33
			c-3.65,0.52-6.23,1.11-7.75,1.76c-1.51,0.65-2.68,1.61-3.5,2.86c-0.82,1.26-1.23,2.65-1.23,4.19c0,2.35,0.9,4.31,2.69,5.88
			c1.79,1.57,4.42,2.35,7.87,2.35c3.42,0,6.46-0.74,9.13-2.23c2.66-1.48,4.62-3.52,5.87-6.09c0.95-1.99,1.43-4.93,1.43-8.81V408.72z
			"/>
		<path class="st7" d="M729.82,434.81v-71.77h8.88v71.77H729.82z"/>
		<path class="st7" d="M749.16,408.82c0-9.63,2.7-16.76,8.09-21.39c4.51-3.85,10-5.78,16.48-5.78c7.2,0,13.09,2.34,17.66,7.03
			c4.57,4.68,6.86,11.15,6.86,19.41c0,6.69-1.01,11.95-3.03,15.79c-2.02,3.83-4.97,6.81-8.83,8.93c-3.86,2.12-8.08,3.18-12.65,3.18
			c-7.33,0-13.26-2.33-17.78-7C751.42,424.32,749.16,417.6,749.16,408.82z M758.29,408.82c0,6.66,1.46,11.64,4.39,14.96
			s6.61,4.97,11.05,4.97c4.41,0,8.07-1.67,11-4.99c2.93-3.33,4.39-8.4,4.39-15.23c0-6.43-1.47-11.3-4.42-14.61
			c-2.94-3.31-6.6-4.97-10.98-4.97c-4.44,0-8.12,1.65-11.05,4.94C759.75,397.18,758.29,402.16,758.29,408.82z"/>
		<path class="st7" d="M808.66,434.81v-51.99h7.94v7.29c1.64-2.54,3.83-4.59,6.56-6.14c2.73-1.55,5.84-2.33,9.32-2.33
			c3.88,0,7.06,0.8,9.55,2.4c2.48,1.6,4.23,3.84,5.25,6.71c4.14-6.07,9.54-9.11,16.18-9.11c5.2,0,9.19,1.43,11.99,4.28
			c2.79,2.86,4.19,7.25,4.19,13.19v35.69h-8.83v-32.75c0-3.52-0.29-6.06-0.86-7.61c-0.58-1.55-1.62-2.8-3.13-3.75
			c-1.51-0.95-3.29-1.42-5.33-1.42c-3.68,0-6.74,1.22-9.18,3.65c-2.43,2.43-3.65,6.32-3.65,11.68v30.21h-8.88v-33.78
			c0-3.92-0.72-6.85-2.17-8.81s-3.82-2.94-7.1-2.94c-2.5,0-4.81,0.65-6.93,1.96c-2.12,1.31-3.66,3.22-4.61,5.73
			s-1.43,6.14-1.43,10.87v26.97H808.66z"/>
		<path class="st7" d="M928.69,418.07l9.18,1.13c-1.45,5.32-4.13,9.45-8.04,12.38c-3.91,2.94-8.91,4.41-15,4.41
			c-7.66,0-13.74-2.34-18.23-7.03c-4.49-4.68-6.73-11.25-6.73-19.7c0-8.75,2.27-15.53,6.81-20.37c4.54-4.83,10.43-7.25,17.66-7.25
			c7.01,0,12.73,2.37,17.17,7.1c4.44,4.73,6.66,11.39,6.66,19.97c0,0.52-0.02,1.31-0.05,2.35h-39.07
			c0.33,5.71,1.96,10.08,4.88,13.12c2.93,3.04,6.58,4.55,10.95,4.55c3.26,0,6.04-0.85,8.34-2.55
			C925.52,424.5,927.34,421.79,928.69,418.07z M899.54,403.83h29.25c-0.39-4.37-1.51-7.65-3.35-9.84c-2.83-3.39-6.5-5.09-11-5.09
			c-4.08,0-7.51,1.35-10.29,4.06S899.83,399.29,899.54,403.83z"/>
		<path class="st7" d="M948.92,434.81v-51.99h7.99v7.88c2.04-3.69,3.92-6.12,5.65-7.29c1.73-1.18,3.63-1.76,5.7-1.76
			c2.99,0,6.04,0.95,9.13,2.84l-3.06,8.18c-2.17-1.27-4.34-1.91-6.51-1.91c-1.94,0-3.68,0.58-5.23,1.74
			c-1.55,1.16-2.65,2.77-3.31,4.82c-0.99,3.13-1.48,6.56-1.48,10.28v27.22H948.92z"/>
		<path class="st7" d="M1016.85,428.4c-3.29,2.77-6.46,4.73-9.5,5.88c-3.04,1.14-6.31,1.71-9.79,1.71c-5.76,0-10.18-1.4-13.27-4.19
			c-3.09-2.79-4.64-6.36-4.64-10.7c0-2.55,0.58-4.87,1.75-6.98c1.17-2.1,2.7-3.79,4.59-5.07c1.89-1.27,4.02-2.24,6.39-2.89
			c1.74-0.46,4.37-0.9,7.89-1.32c7.17-0.85,12.45-1.86,15.84-3.04c0.03-1.21,0.05-1.97,0.05-2.3c0-3.59-0.84-6.12-2.52-7.59
			c-2.27-1.99-5.64-2.99-10.11-2.99c-4.18,0-7.26,0.73-9.25,2.18c-1.99,1.45-3.46,4.02-4.42,7.71l-8.68-1.18
			c0.79-3.69,2.09-6.67,3.9-8.93s4.42-4.01,7.84-5.24c3.42-1.22,7.38-1.84,11.89-1.84c4.47,0,8.11,0.52,10.9,1.57
			c2.8,1.04,4.85,2.36,6.17,3.94s2.24,3.58,2.76,6c0.3,1.5,0.44,4.21,0.44,8.13v11.75c0,8.19,0.19,13.37,0.57,15.54
			c0.38,2.17,1.13,4.25,2.24,6.24h-9.27C1017.71,432.99,1017.12,430.85,1016.85,428.4z M1016.11,408.72
			c-3.22,1.31-8.06,2.42-14.5,3.33c-3.65,0.52-6.23,1.11-7.75,1.76c-1.51,0.65-2.68,1.61-3.5,2.86c-0.82,1.26-1.23,2.65-1.23,4.19
			c0,2.35,0.9,4.31,2.69,5.88c1.79,1.57,4.42,2.35,7.87,2.35c3.42,0,6.46-0.74,9.13-2.23c2.66-1.48,4.62-3.52,5.87-6.09
			c0.95-1.99,1.43-4.93,1.43-8.81V408.72z"/>
	</g>
</g>
</svg>
