<?xml version="1.0" encoding="UTF-8"?>
<svg xmlns="http://www.w3.org/2000/svg" xmlns:xlink="http://www.w3.org/1999/xlink" width="960pt" height="480pt" viewBox="0 0 960 480" version="1.1">
<g id="surface1">
<path style=" stroke:none;fill-rule:nonzero;fill:rgb(11%,11%,11%);fill-opacity:1;" d="M 473.777344 244.734375 C 453.632812 232.808594 455.0625 209.695312 451.214844 189.785156 C 450.320312 185.136719 447.632812 181.007812 443.726562 178.328125 C 406.785156 152.945312 373.441406 242.648438 330.28125 215.808594 C 359.167969 201.207031 451.296875 100.601562 476.175781 143.273438 C 485.0625 167.046875 469.449219 201.6875 491.167969 220.113281 C 530.984375 249.425781 585.089844 187.449219 637.160156 212.046875 C 579.351562 204.191406 530.359375 277.558594 473.777344 244.734375 Z M 473.777344 244.734375 "/>
<path style=" stroke:none;fill-rule:nonzero;fill:rgb(13%,13%,13%);fill-opacity:1;" d="M 731.167969 235.929688 C 758.289062 249.6875 788.398438 214.601562 823.007812 228 C 801.441406 228.425781 778.214844 239.601562 758.59375 250.230469 C 741.710938 261.441406 714.839844 256.984375 705.984375 237.640625 C 702.414062 229.542969 703.398438 220.671875 701.351562 212.296875 C 679.480469 179.480469 651.03125 249.078125 621.640625 231.113281 C 638.199219 221.839844 709.289062 150.375 718.734375 185.929688 C 724.152344 201.6875 713.367188 225.816406 731.167969 235.929688 Z M 731.167969 235.929688 "/>
<path style=" stroke:none;fill-rule:nonzero;fill:rgb(16%,16%,16%);fill-opacity:1;" d="M 346.089844 238.039062 C 349.273438 238.03125 352.222656 238.726562 354.449219 241.238281 C 351.320312 241.121094 348.984375 238.878906 346.089844 238.039062 Z M 346.089844 238.039062 "/>
<path style=" stroke:none;fill-rule:nonzero;fill:rgb(10%,10%,10%);fill-opacity:1;" d="M 627.726562 204.28125 C 627.753906 204.089844 627.734375 203.902344 627.679688 203.726562 "/>
<path style=" stroke:none;fill-rule:nonzero;fill:rgb(28%,28%,28%);fill-opacity:1;" d="M 464.289062 236.769531 C 444.144531 224.839844 445.574219 201.726562 441.726562 181.816406 C 440.832031 177.167969 438.144531 173.039062 434.238281 170.359375 C 397.296875 144.976562 363.953125 234.679688 320.792969 207.839844 C 349.679688 193.238281 441.808594 92.632812 466.6875 135.304688 C 475.574219 159.078125 459.960938 193.71875 481.679688 212.144531 C 521.496094 241.457031 575.601562 179.480469 627.671875 204.078125 C 569.863281 196.222656 520.871094 269.59375 464.289062 236.769531 Z M 464.289062 236.769531 "/>
<path style=" stroke:none;fill-rule:nonzero;fill:rgb(16%,16%,16%);fill-opacity:1;" d="M 329.839844 234.945312 C 294.238281 231.550781 262.640625 275.351562 231.398438 256.632812 C 212.097656 245.0625 222.40625 225.511719 210.070312 213.472656 C 186.089844 200.984375 166.480469 252.480469 138.984375 237.496094 C 156.527344 229.472656 220.839844 159.710938 231.585938 195.273438 C 236.574219 210.238281 226.855469 232.246094 243.425781 242.144531 C 265.414062 256.265625 301.320312 220.761719 329.839844 234.945312 Z M 329.839844 234.945312 "/>
<path style=" stroke:none;fill-rule:nonzero;fill:rgb(64%,64%,64%);fill-opacity:1;" d="M 320.824219 224.902344 C 285.222656 221.511719 254.472656 264.464844 222.382812 246.59375 C 202.71875 235.640625 213.390625 215.472656 201.054688 203.433594 C 177.070312 190.945312 157.464844 242.441406 129.96875 227.457031 C 147.511719 219.433594 211.824219 149.671875 222.566406 185.230469 C 227.558594 200.199219 217.839844 222.207031 234.40625 232.105469 C 256.40625 246.222656 292.304688 210.71875 320.824219 224.902344 Z M 320.824219 224.902344 "/>
<path style=" stroke:none;fill-rule:nonzero;fill:rgb(50%,50%,50%);fill-opacity:1;" d="M 720.816406 226.070312 C 747.9375 239.832031 778.046875 204.742188 812.65625 218.144531 C 791.089844 218.566406 767.863281 229.742188 748.238281 240.375 C 731.359375 251.585938 704.488281 247.128906 695.632812 227.785156 C 692.808594 221.367188 692.839844 214.464844 691.953125 207.703125 C 691.359375 203.183594 689.0625 198.984375 685.398438 196.265625 C 664.382812 180.625 638.230469 237.726562 611.289062 221.257812 C 627.847656 211.984375 698.9375 140.519531 708.382812 176.070312 C 713.800781 191.839844 703.015625 215.96875 720.816406 226.070312 Z M 720.816406 226.070312 "/>
<path style=" stroke:none;fill-rule:nonzero;fill:rgb(54%,54%,54%);fill-opacity:1;" d="M 130.257812 298.542969 L 130.257812 290.441406 L 137.359375 290.441406 L 137.359375 298.542969 Z M 130.257812 347.847656 L 130.257812 306.257812 L 137.359375 306.257812 L 137.359375 347.847656 Z M 130.257812 347.847656 "/>
<path style=" stroke:none;fill-rule:nonzero;fill:rgb(54%,54%,54%);fill-opacity:1;" d="M 148.175781 347.847656 L 148.175781 306.257812 L 154.566406 306.257812 L 154.566406 312.167969 C 157.648438 307.601562 162.097656 305.3125 167.910156 305.3125 C 170.441406 305.3125 172.761719 305.761719 174.878906 306.664062 C 177 307.566406 178.585938 308.742188 179.632812 310.207031 C 180.679688 311.671875 181.425781 313.40625 181.839844 315.414062 C 182.105469 316.71875 182.230469 319.007812 182.230469 322.273438 L 182.230469 347.847656 L 175.128906 347.847656 L 175.128906 322.550781 C 175.128906 319.679688 174.847656 317.535156 174.296875 316.113281 C 173.742188 314.6875 172.761719 313.550781 171.351562 312.703125 C 169.945312 311.855469 168.296875 311.433594 166.398438 311.433594 C 163.375 311.433594 160.761719 312.382812 158.566406 314.289062 C 156.367188 316.191406 155.273438 319.808594 155.273438 325.136719 L 155.273438 347.847656 Z M 148.175781 347.847656 "/>
<path style=" stroke:none;fill-rule:nonzero;fill:rgb(54%,54%,54%);fill-opacity:1;" d="M 190.289062 335.433594 L 197.3125 334.335938 C 197.703125 337.128906 198.808594 339.273438 200.609375 340.761719 C 202.40625 342.246094 204.929688 342.992188 208.167969 342.992188 C 211.433594 342.992188 213.847656 342.335938 215.433594 341.015625 C 217.007812 339.695312 217.800781 338.152344 217.800781 336.375 C 217.800781 334.785156 217.105469 333.527344 215.710938 332.617188 C 214.734375 331.992188 212.320312 331.191406 208.449219 330.222656 C 203.238281 328.921875 199.625 327.792969 197.617188 326.832031 C 195.601562 325.878906 194.078125 324.558594 193.039062 322.878906 C 192 321.199219 191.480469 319.335938 191.480469 317.296875 C 191.480469 315.441406 191.902344 313.726562 192.761719 312.144531 C 193.617188 310.566406 194.777344 309.257812 196.257812 308.207031 C 197.359375 307.398438 198.863281 306.710938 200.777344 306.152344 C 202.679688 305.59375 204.726562 305.3125 206.910156 305.3125 C 210.199219 305.3125 213.089844 305.785156 215.574219 306.71875 C 218.0625 307.65625 219.894531 308.9375 221.078125 310.535156 C 222.265625 312.144531 223.078125 314.289062 223.527344 316.976562 L 216.585938 317.910156 C 216.273438 315.769531 215.351562 314.105469 213.839844 312.894531 C 212.328125 311.695312 210.191406 311.097656 207.425781 311.097656 C 204.160156 311.097656 201.832031 311.632812 200.441406 312.703125 C 199.046875 313.777344 198.351562 315.03125 198.351562 316.464844 C 198.351562 317.375 198.640625 318.199219 199.222656 318.929688 C 199.800781 319.6875 200.710938 320.3125 201.945312 320.808594 C 202.65625 321.070312 204.742188 321.671875 208.214844 322.609375 C 213.238281 323.945312 216.742188 325.03125 218.734375 325.878906 C 220.71875 326.726562 222.28125 327.960938 223.414062 329.585938 C 224.542969 331.199219 225.113281 333.214844 225.113281 335.617188 C 225.113281 337.96875 224.425781 340.175781 223.039062 342.257812 C 221.65625 344.328125 219.664062 345.9375 217.0625 347.070312 C 214.457031 348.207031 211.511719 348.777344 208.222656 348.777344 C 202.777344 348.777344 198.625 347.65625 195.777344 345.40625 C 192.894531 343.175781 191.078125 339.847656 190.289062 335.433594 Z M 190.289062 335.433594 "/>
<path style=" stroke:none;fill-rule:nonzero;fill:rgb(54%,54%,54%);fill-opacity:1;" d="M 249.054688 341.542969 L 250.078125 347.769531 C 248.078125 348.183594 246.289062 348.390625 244.710938 348.390625 C 242.136719 348.390625 240.136719 347.984375 238.710938 347.175781 C 237.289062 346.367188 236.289062 345.304688 235.710938 343.984375 C 235.136719 342.664062 234.839844 339.886719 234.839844 335.664062 L 234.839844 311.734375 L 229.632812 311.734375 L 229.632812 306.257812 L 234.839844 306.257812 L 234.839844 295.953125 L 241.902344 291.71875 L 241.902344 306.246094 L 249.046875 306.246094 L 249.046875 311.726562 L 241.902344 311.726562 L 241.902344 336.046875 C 241.902344 338.054688 242.03125 339.351562 242.28125 339.929688 C 242.527344 340.503906 242.9375 340.960938 243.503906 341.296875 C 244.070312 341.632812 244.878906 341.808594 245.929688 341.808594 C 246.726562 341.816406 247.769531 341.726562 249.054688 341.542969 Z M 249.054688 341.542969 "/>
<path style=" stroke:none;fill-rule:nonzero;fill:rgb(54%,54%,54%);fill-opacity:1;" d="M 256.039062 298.542969 L 256.039062 290.441406 L 263.144531 290.441406 L 263.144531 298.542969 Z M 256.039062 347.847656 L 256.039062 306.257812 L 263.144531 306.257812 L 263.144531 347.847656 Z M 256.039062 347.847656 "/>
<path style=" stroke:none;fill-rule:nonzero;fill:rgb(54%,54%,54%);fill-opacity:1;" d="M 289.472656 341.542969 L 290.496094 347.769531 C 288.496094 348.183594 286.703125 348.390625 285.128906 348.390625 C 282.550781 348.390625 280.550781 347.984375 279.128906 347.175781 C 277.703125 346.367188 276.703125 345.304688 276.128906 343.984375 C 275.550781 342.664062 275.257812 339.886719 275.257812 335.664062 L 275.257812 311.734375 L 270.046875 311.734375 L 270.046875 306.257812 L 275.257812 306.257812 L 275.257812 295.953125 L 282.320312 291.71875 L 282.320312 306.246094 L 289.464844 306.246094 L 289.464844 311.726562 L 282.320312 311.726562 L 282.320312 336.046875 C 282.320312 338.054688 282.449219 339.351562 282.695312 339.929688 C 282.945312 340.503906 283.351562 340.960938 283.921875 341.296875 C 284.488281 341.632812 285.296875 341.808594 286.34375 341.808594 C 287.144531 341.816406 288.183594 341.726562 289.472656 341.542969 Z M 289.472656 341.542969 "/>
<path style=" stroke:none;fill-rule:nonzero;fill:rgb(54%,54%,54%);fill-opacity:1;" d="M 323.886719 347.847656 L 323.886719 341.734375 C 320.625 346.433594 316.191406 348.785156 310.585938 348.785156 C 308.113281 348.785156 305.800781 348.3125 303.65625 347.375 C 301.511719 346.441406 299.921875 345.257812 298.878906 343.832031 C 297.839844 342.40625 297.113281 340.664062 296.6875 338.601562 C 296.398438 337.214844 296.257812 335.023438 296.257812 332.023438 L 296.257812 306.257812 L 303.359375 306.257812 L 303.359375 329.320312 C 303.359375 333 303.503906 335.480469 303.792969 336.761719 C 304.238281 338.617188 305.183594 340.070312 306.632812 341.128906 C 308.078125 342.183594 309.871094 342.710938 312 342.710938 C 314.128906 342.710938 316.128906 342.167969 318 341.089844 C 319.863281 340.007812 321.191406 338.527344 321.96875 336.664062 C 322.742188 334.800781 323.136719 332.089844 323.136719 328.535156 L 323.136719 306.246094 L 330.238281 306.246094 L 330.238281 347.839844 L 323.886719 347.839844 Z M 323.886719 347.847656 "/>
<path style=" stroke:none;fill-rule:nonzero;fill:rgb(54%,54%,54%);fill-opacity:1;" d="M 356.878906 341.542969 L 357.902344 347.769531 C 355.902344 348.183594 354.113281 348.390625 352.535156 348.390625 C 349.960938 348.390625 347.960938 347.984375 346.535156 347.175781 C 345.113281 346.367188 344.113281 345.304688 343.535156 343.984375 C 342.960938 342.664062 342.664062 339.886719 342.664062 335.664062 L 342.664062 311.734375 L 337.457031 311.734375 L 337.457031 306.257812 L 342.664062 306.257812 L 342.664062 295.953125 L 349.726562 291.71875 L 349.726562 306.246094 L 356.871094 306.246094 L 356.871094 311.726562 L 349.726562 311.726562 L 349.726562 336.046875 C 349.726562 338.054688 349.855469 339.351562 350.105469 339.929688 C 350.351562 340.503906 350.761719 340.960938 351.328125 341.296875 C 351.894531 341.632812 352.703125 341.808594 353.753906 341.808594 C 354.550781 341.816406 355.59375 341.726562 356.878906 341.542969 Z M 356.878906 341.542969 "/>
<path style=" stroke:none;fill-rule:nonzero;fill:rgb(54%,54%,54%);fill-opacity:1;" d="M 383.441406 335.433594 L 390.464844 334.335938 C 390.855469 337.128906 391.960938 339.273438 393.761719 340.761719 C 395.558594 342.246094 398.078125 342.992188 401.320312 342.992188 C 404.585938 342.992188 407 342.335938 408.585938 341.015625 C 410.160156 339.695312 410.953125 338.152344 410.953125 336.375 C 410.953125 334.785156 410.257812 333.527344 408.863281 332.617188 C 407.886719 331.992188 405.472656 331.191406 401.601562 330.222656 C 396.390625 328.921875 392.777344 327.792969 390.769531 326.832031 C 388.753906 325.878906 387.230469 324.558594 386.191406 322.878906 C 385.152344 321.199219 384.632812 319.335938 384.632812 317.296875 C 384.632812 315.441406 385.054688 313.726562 385.910156 312.144531 C 386.769531 310.566406 387.929688 309.257812 389.40625 308.207031 C 390.511719 307.398438 392.015625 306.710938 393.929688 306.152344 C 395.832031 305.59375 397.878906 305.3125 400.0625 305.3125 C 403.351562 305.3125 406.238281 305.785156 408.726562 306.71875 C 411.214844 307.65625 413.046875 308.9375 414.230469 310.535156 C 415.414062 312.144531 416.230469 314.289062 416.679688 316.976562 L 409.734375 317.910156 C 409.425781 315.769531 408.503906 314.105469 406.992188 312.894531 C 405.480469 311.695312 403.34375 311.097656 400.574219 311.097656 C 397.3125 311.097656 394.984375 311.632812 393.59375 312.703125 C 392.199219 313.777344 391.503906 315.03125 391.503906 316.464844 C 391.503906 317.375 391.792969 318.199219 392.375 318.929688 C 392.953125 319.6875 393.863281 320.3125 395.097656 320.808594 C 395.808594 321.070312 397.894531 321.671875 401.367188 322.609375 C 406.390625 323.945312 409.894531 325.03125 411.886719 325.878906 C 413.871094 326.726562 415.433594 327.960938 416.566406 329.585938 C 417.695312 331.199219 418.265625 333.214844 418.265625 335.617188 C 418.265625 337.96875 417.574219 340.175781 416.191406 342.257812 C 414.808594 344.328125 412.816406 345.9375 410.214844 347.070312 C 407.609375 348.207031 404.664062 348.777344 401.375 348.777344 C 395.929688 348.777344 391.777344 347.65625 388.929688 345.40625 C 386.054688 343.175781 384.230469 339.847656 383.441406 335.433594 Z M 383.441406 335.433594 "/>
<path style=" stroke:none;fill-rule:nonzero;fill:rgb(54%,54%,54%);fill-opacity:1;" d="M 454.046875 342.71875 C 451.414062 344.9375 448.878906 346.503906 446.449219 347.425781 C 444.015625 348.335938 441.398438 348.792969 438.617188 348.792969 C 434.007812 348.792969 430.472656 347.671875 428 345.441406 C 425.527344 343.207031 424.289062 340.351562 424.289062 336.878906 C 424.289062 334.839844 424.753906 332.984375 425.6875 331.296875 C 426.625 329.617188 427.847656 328.265625 429.359375 327.238281 C 430.871094 326.222656 432.574219 325.449219 434.472656 324.929688 C 435.863281 324.558594 437.96875 324.207031 440.785156 323.871094 C 446.519531 323.191406 450.742188 322.382812 453.457031 321.441406 C 453.480469 320.472656 453.496094 319.863281 453.496094 319.601562 C 453.496094 316.726562 452.824219 314.703125 451.480469 313.527344 C 449.664062 311.9375 446.96875 311.136719 443.390625 311.136719 C 440.046875 311.136719 437.585938 311.71875 435.992188 312.878906 C 434.398438 314.039062 433.222656 316.097656 432.457031 319.046875 L 425.511719 318.105469 C 426.144531 315.152344 427.183594 312.769531 428.632812 310.960938 C 430.078125 309.144531 432.167969 307.753906 434.902344 306.769531 C 437.640625 305.792969 440.808594 305.296875 444.414062 305.296875 C 447.992188 305.296875 450.902344 305.710938 453.136719 306.550781 C 455.367188 307.382812 457.015625 308.441406 458.070312 309.703125 C 459.128906 310.96875 459.863281 312.566406 460.28125 314.503906 C 460.519531 315.703125 460.632812 317.871094 460.632812 321.007812 L 460.632812 330.40625 C 460.632812 336.960938 460.785156 341.105469 461.089844 342.839844 C 461.390625 344.574219 461.992188 346.238281 462.878906 347.832031 L 455.464844 347.832031 C 454.734375 346.390625 454.265625 344.679688 454.046875 342.71875 Z M 453.457031 326.976562 C 450.878906 328.023438 447.007812 328.910156 441.855469 329.640625 C 438.9375 330.054688 436.871094 330.527344 435.65625 331.046875 C 434.449219 331.566406 433.511719 332.335938 432.855469 333.335938 C 432.199219 334.34375 431.871094 335.457031 431.871094 336.6875 C 431.871094 338.566406 432.59375 340.136719 434.023438 341.390625 C 435.457031 342.648438 437.558594 343.273438 440.320312 343.273438 C 443.054688 343.273438 445.488281 342.679688 447.625 341.488281 C 449.753906 340.304688 451.320312 338.671875 452.320312 336.617188 C 453.078125 335.023438 453.464844 332.671875 453.464844 329.566406 L 453.464844 326.976562 Z M 453.457031 326.976562 "/>
<path style=" stroke:none;fill-rule:nonzero;fill:rgb(54%,54%,54%);fill-opacity:1;" d="M 494.113281 363.792969 L 494.113281 306.257812 L 500.585938 306.257812 L 500.585938 311.664062 C 502.113281 309.550781 503.832031 307.960938 505.753906 306.902344 C 507.671875 305.847656 510 305.320312 512.734375 305.320312 C 516.3125 305.320312 519.472656 306.230469 522.207031 308.0625 C 524.945312 309.894531 527.007812 312.472656 528.40625 315.800781 C 529.800781 319.128906 530.496094 322.777344 530.496094 326.742188 C 530.496094 331 529.726562 334.832031 528.183594 338.238281 C 526.640625 341.648438 524.40625 344.257812 521.472656 346.070312 C 518.535156 347.886719 515.457031 348.792969 512.214844 348.792969 C 509.847656 348.792969 507.71875 348.296875 505.839844 347.304688 C 503.960938 346.3125 502.414062 345.054688 501.199219 343.542969 L 501.199219 363.792969 Z M 500.542969 327.289062 C 500.542969 332.640625 501.632812 336.59375 503.816406 339.152344 C 506 341.710938 508.640625 342.992188 511.753906 342.992188 C 514.910156 342.992188 517.617188 341.664062 519.863281 339.015625 C 522.113281 336.367188 523.238281 332.257812 523.238281 326.695312 C 523.238281 321.398438 522.144531 317.425781 519.945312 314.792969 C 517.742188 312.152344 515.121094 310.839844 512.070312 310.839844 C 509.046875 310.839844 506.367188 312.238281 504.039062 315.046875 C 501.703125 317.855469 500.542969 321.9375 500.542969 327.289062 Z M 500.542969 327.289062 "/>
<path style=" stroke:none;fill-rule:nonzero;fill:rgb(54%,54%,54%);fill-opacity:1;" d="M 566.414062 342.71875 C 563.785156 344.9375 561.246094 346.503906 558.816406 347.425781 C 556.382812 348.335938 553.769531 348.792969 550.984375 348.792969 C 546.375 348.792969 542.839844 347.671875 540.367188 345.441406 C 537.894531 343.207031 536.65625 340.351562 536.65625 336.878906 C 536.65625 334.839844 537.121094 332.984375 538.054688 331.296875 C 538.992188 329.617188 540.214844 328.265625 541.726562 327.238281 C 543.238281 326.222656 544.945312 325.449219 546.839844 324.929688 C 548.230469 324.558594 550.335938 324.207031 553.152344 323.871094 C 558.886719 323.191406 563.113281 322.382812 565.824219 321.441406 C 565.847656 320.472656 565.863281 319.863281 565.863281 319.601562 C 565.863281 316.726562 565.191406 314.703125 563.847656 313.527344 C 562.03125 311.9375 559.335938 311.136719 555.761719 311.136719 C 552.414062 311.136719 549.953125 311.71875 548.359375 312.878906 C 546.769531 314.039062 545.59375 316.097656 544.824219 319.046875 L 537.878906 318.105469 C 538.511719 315.152344 539.550781 312.769531 541 310.960938 C 542.449219 309.152344 544.535156 307.753906 547.273438 306.769531 C 550.007812 305.792969 553.175781 305.296875 556.785156 305.296875 C 560.359375 305.296875 563.273438 305.710938 565.503906 306.550781 C 567.742188 307.382812 569.382812 308.441406 570.441406 309.703125 C 571.496094 310.96875 572.230469 312.566406 572.648438 314.503906 C 572.886719 315.703125 573 317.871094 573 321.007812 L 573 330.40625 C 573 336.960938 573.152344 341.105469 573.457031 342.839844 C 573.761719 344.574219 574.359375 346.238281 575.246094 347.832031 L 567.832031 347.832031 C 567.097656 346.390625 566.625 344.679688 566.414062 342.71875 Z M 565.824219 326.976562 C 563.246094 328.023438 559.375 328.910156 554.222656 329.640625 C 551.304688 330.054688 549.238281 330.527344 548.023438 331.046875 C 546.816406 331.566406 545.878906 332.335938 545.222656 333.335938 C 544.566406 334.34375 544.238281 335.457031 544.238281 336.6875 C 544.238281 338.566406 544.960938 340.136719 546.390625 341.390625 C 547.824219 342.648438 549.929688 343.273438 552.6875 343.273438 C 555.425781 343.273438 557.855469 342.679688 559.992188 341.488281 C 562.121094 340.304688 563.6875 338.671875 564.6875 336.617188 C 565.449219 335.023438 565.832031 332.671875 565.832031 329.566406 L 565.832031 326.976562 Z M 565.824219 326.976562 "/>
<path style=" stroke:none;fill-rule:nonzero;fill:rgb(54%,54%,54%);fill-opacity:1;" d="M 583.855469 347.847656 L 583.855469 290.433594 L 590.960938 290.433594 L 590.960938 347.847656 Z M 583.855469 347.847656 "/>
<path style=" stroke:none;fill-rule:nonzero;fill:rgb(54%,54%,54%);fill-opacity:1;" d="M 599.328125 327.054688 C 599.328125 319.351562 601.488281 313.648438 605.800781 309.945312 C 609.40625 306.863281 613.800781 305.320312 618.984375 305.320312 C 624.742188 305.320312 629.457031 307.191406 633.113281 310.945312 C 636.769531 314.6875 638.601562 319.863281 638.601562 326.472656 C 638.601562 331.824219 637.792969 336.03125 636.175781 339.105469 C 634.558594 342.167969 632.199219 344.550781 629.113281 346.246094 C 626.023438 347.945312 622.648438 348.792969 618.992188 348.792969 C 613.128906 348.792969 608.382812 346.929688 604.769531 343.191406 C 601.136719 339.457031 599.328125 334.078125 599.328125 327.054688 Z M 606.632812 327.054688 C 606.632812 332.382812 607.800781 336.367188 610.144531 339.023438 C 612.488281 341.679688 615.433594 343 618.984375 343 C 622.511719 343 625.441406 341.664062 627.785156 339.007812 C 630.128906 336.34375 631.296875 332.289062 631.296875 326.824219 C 631.296875 321.679688 630.121094 317.785156 627.761719 315.136719 C 625.40625 312.488281 622.480469 311.160156 618.976562 311.160156 C 615.425781 311.160156 612.480469 312.480469 610.136719 315.113281 C 607.800781 317.742188 606.632812 321.726562 606.632812 327.054688 Z M 606.632812 327.054688 "/>
<path style=" stroke:none;fill-rule:nonzero;fill:rgb(54%,54%,54%);fill-opacity:1;" d="M 646.929688 347.847656 L 646.929688 306.257812 L 653.28125 306.257812 L 653.28125 312.089844 C 654.59375 310.054688 656.34375 308.414062 658.527344 307.175781 C 660.710938 305.9375 663.199219 305.3125 665.984375 305.3125 C 669.089844 305.3125 671.632812 305.953125 673.625 307.230469 C 675.609375 308.511719 677.007812 310.304688 677.824219 312.601562 C 681.136719 307.742188 685.457031 305.3125 690.769531 305.3125 C 694.929688 305.3125 698.121094 306.457031 700.359375 308.734375 C 702.59375 311.023438 703.710938 314.535156 703.710938 319.289062 L 703.710938 347.839844 L 696.648438 347.839844 L 696.648438 321.640625 C 696.648438 318.824219 696.414062 316.792969 695.960938 315.550781 C 695.496094 314.3125 694.664062 313.3125 693.457031 312.550781 C 692.246094 311.792969 690.824219 311.414062 689.191406 311.414062 C 686.246094 311.414062 683.800781 312.390625 681.847656 314.335938 C 679.902344 316.28125 678.929688 319.390625 678.929688 323.679688 L 678.929688 347.847656 L 671.824219 347.847656 L 671.824219 320.824219 C 671.824219 317.6875 671.246094 315.34375 670.089844 313.777344 C 668.929688 312.207031 667.03125 311.425781 664.40625 311.425781 C 662.40625 311.425781 660.558594 311.945312 658.863281 312.992188 C 657.167969 314.039062 655.9375 315.566406 655.175781 317.574219 C 654.414062 319.585938 654.03125 322.488281 654.03125 326.273438 L 654.03125 347.847656 Z M 646.929688 347.847656 "/>
<path style=" stroke:none;fill-rule:nonzero;fill:rgb(54%,54%,54%);fill-opacity:1;" d="M 742.953125 334.457031 L 750.296875 335.359375 C 749.136719 339.617188 746.992188 342.921875 743.863281 345.265625 C 740.734375 347.617188 736.734375 348.792969 731.863281 348.792969 C 725.734375 348.792969 720.871094 346.921875 717.28125 343.167969 C 713.6875 339.425781 711.894531 334.167969 711.894531 327.40625 C 711.894531 320.40625 713.710938 314.984375 717.34375 311.113281 C 720.976562 307.246094 725.6875 305.3125 731.472656 305.3125 C 737.078125 305.3125 741.65625 307.207031 745.207031 310.992188 C 748.761719 314.777344 750.535156 320.105469 750.535156 326.96875 C 750.535156 327.382812 750.519531 328.015625 750.496094 328.847656 L 719.238281 328.847656 C 719.503906 333.414062 720.808594 336.910156 723.144531 339.34375 C 725.488281 341.777344 728.40625 342.984375 731.902344 342.984375 C 734.511719 342.984375 736.734375 342.304688 738.574219 340.945312 C 740.414062 339.601562 741.871094 337.433594 742.953125 334.457031 Z M 719.632812 323.0625 L 743.03125 323.0625 C 742.71875 319.566406 741.824219 316.945312 740.351562 315.191406 C 738.089844 312.480469 735.152344 311.121094 731.550781 311.121094 C 728.289062 311.121094 725.542969 312.199219 723.320312 314.367188 C 721.097656 316.535156 719.863281 319.433594 719.632812 323.0625 Z M 719.632812 323.0625 "/>
<path style=" stroke:none;fill-rule:nonzero;fill:rgb(54%,54%,54%);fill-opacity:1;" d="M 759.136719 347.847656 L 759.136719 306.257812 L 765.527344 306.257812 L 765.527344 312.558594 C 767.160156 309.609375 768.664062 307.664062 770.046875 306.726562 C 771.433594 305.785156 772.953125 305.320312 774.609375 305.320312 C 777 305.320312 779.441406 306.078125 781.910156 307.59375 L 779.464844 314.136719 C 777.726562 313.121094 775.992188 312.609375 774.257812 312.609375 C 772.703125 312.609375 771.3125 313.070312 770.070312 314 C 768.832031 314.929688 767.953125 316.214844 767.425781 317.855469 C 766.632812 320.359375 766.238281 323.105469 766.238281 326.078125 L 766.238281 347.855469 L 759.136719 347.855469 Z M 759.136719 347.847656 "/>
<path style=" stroke:none;fill-rule:nonzero;fill:rgb(54%,54%,54%);fill-opacity:1;" d="M 813.480469 342.71875 C 810.847656 344.9375 808.3125 346.503906 805.878906 347.425781 C 803.449219 348.335938 800.832031 348.792969 798.046875 348.792969 C 793.441406 348.792969 789.902344 347.671875 787.433594 345.441406 C 784.960938 343.207031 783.71875 340.351562 783.71875 336.878906 C 783.71875 334.839844 784.183594 332.984375 785.121094 331.296875 C 786.054688 329.617188 787.28125 328.265625 788.792969 327.238281 C 790.304688 326.222656 792.007812 325.449219 793.902344 324.929688 C 795.296875 324.558594 797.398438 324.207031 800.214844 323.871094 C 805.953125 323.191406 810.175781 322.382812 812.886719 321.441406 C 812.910156 320.472656 812.929688 319.863281 812.929688 319.601562 C 812.929688 316.726562 812.257812 314.703125 810.910156 313.527344 C 809.097656 311.9375 806.398438 311.136719 802.824219 311.136719 C 799.480469 311.136719 797.015625 311.71875 795.425781 312.878906 C 793.832031 314.039062 792.65625 316.097656 791.886719 319.046875 L 784.945312 318.105469 C 785.574219 315.152344 786.617188 312.769531 788.0625 310.960938 C 789.511719 309.152344 791.601562 307.753906 794.335938 306.769531 C 797.070312 305.792969 800.238281 305.296875 803.847656 305.296875 C 807.425781 305.296875 810.335938 305.710938 812.566406 306.550781 C 814.808594 307.382812 816.449219 308.441406 817.503906 309.703125 C 818.558594 310.96875 819.296875 312.566406 819.710938 314.503906 C 819.953125 315.703125 820.0625 317.871094 820.0625 321.007812 L 820.0625 330.40625 C 820.0625 336.960938 820.214844 341.105469 820.519531 342.839844 C 820.824219 344.574219 821.425781 346.238281 822.3125 347.832031 L 814.894531 347.832031 C 814.167969 346.390625 813.695312 344.679688 813.480469 342.71875 Z M 812.886719 326.976562 C 810.3125 328.023438 806.441406 328.910156 801.289062 329.640625 C 798.367188 330.054688 796.304688 330.527344 795.089844 331.046875 C 793.878906 331.566406 792.945312 332.335938 792.289062 333.335938 C 791.632812 334.34375 791.304688 335.457031 791.304688 336.6875 C 791.304688 338.566406 792.023438 340.136719 793.457031 341.390625 C 794.886719 342.648438 796.992188 343.273438 799.753906 343.273438 C 802.488281 343.273438 804.921875 342.679688 807.054688 341.488281 C 809.183594 340.304688 810.753906 338.671875 811.753906 336.617188 C 812.511719 335.023438 812.894531 332.671875 812.894531 329.566406 L 812.894531 326.976562 Z M 812.886719 326.976562 "/>
</g>
</svg>
